<svg width="20" height="20" viewBox="0 0 20 20" fill="none" xmlns="http://www.w3.org/2000/svg">
<g clip-path="url(#clip0_1670_32764)">
<g clip-path="url(#clip1_1670_32764)">
<path d="M9.56422 19.1284C14.8644 19.1284 19.1284 14.8644 19.1284 9.56422C19.1284 4.26402 14.8644 0 9.56422 0C4.26402 0 0 4.26402 0 9.56422C0 14.8644 4.26402 19.1284 9.56422 19.1284Z" fill="#2775CA"/>
<path d="M12.1916 11.0723C12.1916 9.67747 11.3547 9.19926 9.68094 9C8.48542 8.8406 8.24631 8.52179 8.24631 7.96385C8.24631 7.40586 8.64482 7.0473 9.44184 7.0473C10.1592 7.0473 10.5577 7.28641 10.7569 7.88417C10.7968 8.00373 10.9163 8.08343 11.0359 8.08343H11.6735C11.8329 8.08343 11.9524 7.96385 11.9524 7.8045V7.76462C11.793 6.88787 11.0757 6.21043 10.1592 6.13076V5.17434C10.1592 5.0149 10.0396 4.89535 9.84035 4.85547H9.24259C9.08318 4.85547 8.96363 4.97502 8.92378 5.17434V6.09088C7.72822 6.25031 6.97111 7.0473 6.97111 8.04358C6.97111 9.35866 7.7681 9.87672 9.44184 10.076C10.5577 10.2752 10.9163 10.5143 10.9163 11.152C10.9163 11.7896 10.3584 12.2279 9.60124 12.2279C8.56512 12.2279 8.20646 11.7896 8.08691 11.1918C8.04706 11.0324 7.92754 10.9527 7.80798 10.9527H7.13045C6.97111 10.9527 6.85156 11.0723 6.85156 11.2317V11.2715C7.0109 12.2678 7.64855 12.9851 8.96363 13.1844V14.1409C8.96363 14.3002 9.08318 14.4197 9.28244 14.4596H9.8802C10.0396 14.4596 10.1592 14.34 10.199 14.1409V13.1844C11.3945 12.9851 12.1916 12.1482 12.1916 11.0723Z" fill="white"/>
<path d="M7.52742 15.2624C4.41904 14.1466 2.82497 10.6796 3.98071 7.61098C4.57848 5.93724 5.89357 4.66203 7.52742 4.06427C7.68686 3.9846 7.76653 3.86505 7.76653 3.66573V3.10784C7.76653 2.9484 7.68686 2.82885 7.52742 2.78906C7.48754 2.78906 7.40787 2.78906 7.36799 2.82885C3.58217 4.02438 1.50989 8.04944 2.70542 11.8352C3.42274 14.0668 5.13637 15.7805 7.36799 16.4978C7.52742 16.5775 7.68686 16.4978 7.72665 16.3383C7.76653 16.2986 7.76653 16.2587 7.76653 16.179V15.621C7.76653 15.5015 7.64697 15.3422 7.52742 15.2624ZM11.7517 2.82885C11.5922 2.74918 11.4328 2.82885 11.393 2.98829C11.3531 3.02817 11.3531 3.06796 11.3531 3.14772V3.70561C11.3531 3.86505 11.4727 4.02439 11.5922 4.10415C14.7006 5.21992 16.2947 8.68697 15.1389 11.7556C14.5412 13.4293 13.2261 14.7045 11.5922 15.3023C11.4328 15.3819 11.3531 15.5015 11.3531 15.7008V16.2587C11.3531 16.4181 11.4328 16.5377 11.5922 16.5775C11.6321 16.5775 11.7118 16.5775 11.7517 16.5377C15.5374 15.3422 17.6098 11.3171 16.4142 7.53131C15.6969 5.2598 13.9434 3.54617 11.7517 2.82885Z" fill="white"/>
</g>
</g>
<defs>
<clipPath id="clip0_1670_32764">
<rect width="19.1284" height="19.1284" rx="2.78232" fill="white"/>
</clipPath>
<clipPath id="clip1_1670_32764">
<rect width="19.1284" height="19.1284" fill="white"/>
</clipPath>
</defs>
</svg>
