<svg width="25" height="28" viewBox="0 0 25 28" fill="none" xmlns="http://www.w3.org/2000/svg">
<g clip-path="url(#clip0_195_9942)">
<path fill-rule="evenodd" clip-rule="evenodd" d="M0 10.528V21.6391H3.47222C3.83699 21.6391 4.1982 21.711 4.53525 21.8506C4.87221 21.9901 5.17849 22.1947 5.43637 22.4527C5.69433 22.7106 5.89897 23.0169 6.03858 23.3539C6.17811 23.6909 6.25 24.0521 6.25 24.4169V27.8891H14.5833L25 17.4724V6.36133H21.5278C21.163 6.36133 20.8018 6.28949 20.4647 6.14989C20.1278 6.01029 19.8215 5.80568 19.5636 5.54774C19.3057 5.2898 19.101 4.98356 18.9614 4.64656C18.8219 4.30955 18.75 3.94834 18.75 3.58355V0.111328H10.4167L0 10.528ZM11.8056 20.9447H6.94444V13.3058L13.1944 7.05577H18.0556V14.6947L11.8056 20.9447Z" fill="#9D82FE"/>
</g>
<defs>
<clipPath id="clip0_195_9942">
<rect width="25" height="28" fill="white"/>
</clipPath>
</defs>
</svg>
