<svg width="16" height="16" viewBox="0 0 16 16" fill="none" xmlns="http://www.w3.org/2000/svg">
<path d="M11.1665 2.66669C11.1665 2.39054 10.9426 2.16669 10.6665 2.16669C10.3904 2.16669 10.1665 2.39054 10.1665 2.66669H10.6665H11.1665ZM10.1665 4.00002C10.1665 4.27616 10.3904 4.50002 10.6665 4.50002C10.9426 4.50002 11.1665 4.27616 11.1665 4.00002H10.6665H10.1665ZM5.83317 2.66669C5.83317 2.39054 5.60931 2.16669 5.33317 2.16669C5.05703 2.16669 4.83317 2.39054 4.83317 2.66669H5.33317H5.83317ZM4.83317 4.00002C4.83317 4.27616 5.05703 4.50002 5.33317 4.50002C5.60931 4.50002 5.83317 4.27616 5.83317 4.00002H5.33317H4.83317ZM3.33317 4.00002V4.50002H12.6665V4.00002V3.50002H3.33317V4.00002ZM13.3332 4.66669H12.8332V12.6667H13.3332H13.8332V4.66669H13.3332ZM12.6665 13.3334V12.8334H3.33317V13.3334V13.8334H12.6665V13.3334ZM2.6665 12.6667H3.1665V4.66669H2.6665H2.1665V12.6667H2.6665ZM2.6665 7.33335V7.83335H13.3332V7.33335V6.83335H2.6665V7.33335ZM10.6665 2.66669H10.1665V4.00002H10.6665H11.1665V2.66669H10.6665ZM5.33317 2.66669H4.83317V4.00002H5.33317H5.83317V2.66669H5.33317ZM3.33317 13.3334V12.8334C3.24112 12.8334 3.1665 12.7587 3.1665 12.6667H2.6665H2.1665C2.1665 13.311 2.68884 13.8334 3.33317 13.8334V13.3334ZM13.3332 12.6667H12.8332C12.8332 12.7587 12.7586 12.8334 12.6665 12.8334V13.3334V13.8334C13.3108 13.8334 13.8332 13.311 13.8332 12.6667H13.3332ZM12.6665 4.00002V4.50002C12.7586 4.50002 12.8332 4.57464 12.8332 4.66669H13.3332H13.8332C13.8332 4.02235 13.3108 3.50002 12.6665 3.50002V4.00002ZM3.33317 4.00002V3.50002C2.68884 3.50002 2.1665 4.02235 2.1665 4.66669H2.6665H3.1665C3.1665 4.57464 3.24112 4.50002 3.33317 4.50002V4.00002Z" fill="currentColor"/>
</svg>
