<svg width="14" height="14" viewBox="0 0 14 14" fill="none" xmlns="http://www.w3.org/2000/svg">
<path fill-rule="evenodd" clip-rule="evenodd" d="M13.72 7.15838C13.72 6.66202 13.6755 6.18474 13.5927 5.72656H7V8.43429H10.7673C10.605 9.30929 10.1118 10.0507 9.37045 10.547V12.3034H11.6327C12.9564 11.0847 13.72 9.2902 13.72 7.15838Z" fill="#4285F4"/>
<path fill-rule="evenodd" clip-rule="evenodd" d="M6.9996 14.0001C8.8896 14.0001 10.4741 13.3733 11.6323 12.3042L9.37005 10.5478C8.74323 10.9678 7.94141 11.216 6.9996 11.216C5.17641 11.216 3.63323 9.98462 3.08278 8.33008H0.744141V10.1437C1.89596 12.4314 4.26323 14.0001 6.9996 14.0001Z" fill="#34A853"/>
<path fill-rule="evenodd" clip-rule="evenodd" d="M3.08318 8.33106C2.94318 7.91106 2.86364 7.46242 2.86364 7.00106C2.86364 6.53969 2.94318 6.09106 3.08318 5.67106V3.85742H0.744545C0.270455 4.80242 0 5.87151 0 7.00106C0 8.1306 0.270455 9.1997 0.744545 10.1447L3.08318 8.33106Z" fill="#FBBC05"/>
<path fill-rule="evenodd" clip-rule="evenodd" d="M6.9996 2.78409C8.02732 2.78409 8.95005 3.13727 9.67551 3.83091L11.6832 1.82318C10.471 0.693636 8.88641 0 6.9996 0C4.26323 0 1.89596 1.56864 0.744141 3.85636L3.08278 5.67C3.63323 4.01545 5.17641 2.78409 6.9996 2.78409Z" fill="#EA4335"/>
</svg>
