<svg width="16" height="16" viewBox="0 0 16 16" fill="none" xmlns="http://www.w3.org/2000/svg">
<path d="M13.7625 1.78125L8.76562 5.49249L9.68967 3.30291L13.7625 1.78125Z" fill="#E2761B" stroke="#E2761B" stroke-width="0.0502197" stroke-linecap="round" stroke-linejoin="round"/>
<path d="M2.22653 1.78125L7.18321 5.52764L6.30437 3.30291L2.22653 1.78125ZM11.9641 10.3839L10.6333 12.4228L13.4808 13.2062L14.2993 10.4291L11.9641 10.3839ZM1.69922 10.4291L2.51278 13.2062L5.36024 12.4228L4.02941 10.3839L1.69922 10.4291Z" fill="#E4761B" stroke="#E4761B" stroke-width="0.0502197" stroke-linecap="round" stroke-linejoin="round"/>
<path d="M5.20363 6.93905L4.41016 8.1393L7.23753 8.26485L7.13709 5.22656L5.20363 6.93905ZM10.7931 6.93905L8.83451 5.19141L8.76923 8.26485L11.5916 8.1393L10.7931 6.93905ZM5.36433 12.423L7.06176 11.5944L5.59534 10.4494L5.36433 12.423ZM8.93495 11.5944L10.6374 12.423L10.4014 10.4494L8.93495 11.5944Z" fill="#E4761B" stroke="#E4761B" stroke-width="0.0502197" stroke-linecap="round" stroke-linejoin="round"/>
<path d="M10.6364 12.4224L8.9339 11.5938L9.0695 12.7036L9.05443 13.1706L10.6364 12.4224ZM5.36328 12.4224L6.9452 13.1706L6.93516 12.7036L7.06071 11.5938L5.36328 12.4224Z" fill="#D7C1B3" stroke="#D7C1B3" stroke-width="0.0502197" stroke-linecap="round" stroke-linejoin="round"/>
<path d="M6.96893 9.71757L5.55273 9.30075L6.55211 8.84375L6.96893 9.71757ZM9.02292 9.71757L9.43974 8.84375L10.4441 9.30075L9.02292 9.71757Z" fill="#233447" stroke="#233447" stroke-width="0.0502197" stroke-linecap="round" stroke-linejoin="round"/>
<path d="M5.36207 12.4244L5.60313 10.3854L4.03125 10.4306L5.36207 12.4244ZM10.3941 10.3854L10.6351 12.4244L11.966 10.4306L10.3941 10.3854ZM11.5893 8.14062L8.76697 8.26617L9.02811 9.71752L9.44493 8.8437L10.4493 9.3007L11.5893 8.14062ZM5.55291 9.3007L6.5573 8.8437L6.9691 9.71752L7.23527 8.26617L4.4079 8.14062L5.55291 9.3007Z" fill="#CD6116" stroke="#CD6116" stroke-width="0.0502197" stroke-linecap="round" stroke-linejoin="round"/>
<path d="M4.41016 8.14062L5.59534 10.4507L5.55517 9.3007L4.41016 8.14062ZM10.4516 9.3007L10.4014 10.4507L11.5916 8.14062L10.4516 9.3007ZM7.23753 8.26617L6.97136 9.71752L7.30281 11.43L7.37814 9.17515L7.23753 8.26617ZM8.76923 8.26617L8.63363 9.17013L8.6939 11.43L9.03037 9.71752L8.76923 8.26617Z" fill="#E4751F" stroke="#E4751F" stroke-width="0.0502197" stroke-linecap="round" stroke-linejoin="round"/>
<path d="M9.02794 9.71761L8.69147 11.4301L8.93252 11.5958L10.3989 10.4508L10.4492 9.30078L9.02794 9.71761ZM5.55273 9.30078L5.59291 10.4508L7.05933 11.5958L7.30038 11.4301L6.96893 9.71761L5.55273 9.30078Z" fill="#F6851B" stroke="#F6851B" stroke-width="0.0502197" stroke-linecap="round" stroke-linejoin="round"/>
<path d="M9.05443 13.1701L9.0695 12.7031L8.94395 12.5926H7.05066L6.93516 12.7031L6.9452 13.1701L5.36328 12.4219L5.9157 12.8739L7.0356 13.6523H8.95901L10.0839 12.8739L10.6364 12.4219L9.05443 13.1701Z" fill="#C0AD9E" stroke="#C0AD9E" stroke-width="0.0502197" stroke-linecap="round" stroke-linejoin="round"/>
<path d="M8.93234 11.5935L8.69128 11.4277H7.3002L7.05914 11.5935L6.93359 12.7033L7.0491 12.5928H8.94238L9.06793 12.7033L8.93234 11.5935Z" fill="#161616" stroke="#161616" stroke-width="0.0502197" stroke-linecap="round" stroke-linejoin="round"/>
<path d="M13.9768 5.73354L14.4037 3.68458L13.7659 1.78125L8.93476 5.36694L10.7929 6.93881L13.4194 7.70718L14.0019 7.02921L13.7508 6.84842L14.1526 6.48182L13.8412 6.24076L14.243 5.93442L13.9768 5.73354ZM1.59766 3.68458L2.02452 5.73354L1.75334 5.93442L2.1551 6.24076L1.84875 6.48182L2.25051 6.84842L1.99941 7.02921L2.57694 7.70718L5.20343 6.93881L7.06156 5.36694L2.23042 1.78125L1.59766 3.68458Z" fill="#763D16" stroke="#763D16" stroke-width="0.0502197" stroke-linecap="round" stroke-linejoin="round"/>
<path d="M13.4155 7.707L10.789 6.93864L11.5875 8.13889L10.3973 10.449L11.9641 10.4289H14.2993L13.4155 7.707ZM5.19953 6.93864L2.57304 7.707L1.69922 10.4289H4.02941L5.59125 10.449L4.40606 8.13889L5.19953 6.93864ZM8.76513 8.26444L8.93086 5.36676L9.6942 3.30273H6.30437L7.05766 5.36676L7.23343 8.26444L7.29369 9.17844L7.29872 11.4283H8.6898L8.69985 9.17844L8.76513 8.26444Z" fill="#F6851B" stroke="#F6851B" stroke-width="0.0502197" stroke-linecap="round" stroke-linejoin="round"/>
</svg>
