<svg width="16" height="16" viewBox="0 0 16 16" fill="none" xmlns="http://www.w3.org/2000/svg">
<path d="M8.92285 2.74609L8.46723 2.95202C8.39096 2.78328 8.4142 2.58619 8.52763 2.43982C8.64107 2.29345 8.82611 2.22175 9.00855 2.25349L8.92285 2.74609ZM9.33594 4.66602H9.83594V4.66606L9.33594 4.66602ZM4.66895 9.33203V9.83203H4.66891L4.66895 9.33203ZM2.75 8.91895L2.2574 9.00463C2.22566 8.82219 2.29736 8.63716 2.44373 8.52373C2.5901 8.4103 2.78717 8.38705 2.95592 8.46332L2.75 8.91895ZM8.00293 13.332L8.00296 13.832H8.00293V13.332ZM13.3359 7.99902H13.8359V7.99903L13.3359 7.99902ZM8.92285 2.74609L9.37848 2.54017C9.67158 3.18867 9.83594 3.90866 9.83594 4.66602H9.33594H8.83594C8.83594 4.05458 8.70346 3.47469 8.46723 2.95202L8.92285 2.74609ZM9.33594 4.66602L9.83594 4.66606C9.83567 7.51938 7.52218 9.83203 4.66895 9.83203V9.33203V8.83203C6.97007 8.83203 8.83572 6.9669 8.83594 4.66597L9.33594 4.66602ZM4.66895 9.33203L4.66891 9.83203C3.91165 9.83198 3.19238 9.66757 2.54408 9.37457L2.75 8.91895L2.95592 8.46332C3.47856 8.69952 4.05777 8.83199 4.66898 8.83203L4.66895 9.33203ZM2.75 8.91895L3.2426 8.83326C3.63775 11.105 5.61865 12.832 8.00293 12.832V13.332V13.832C5.12387 13.832 2.73437 11.7468 2.2574 9.00463L2.75 8.91895ZM8.00293 13.332L8.0029 12.832C10.6721 12.8319 12.8359 10.6682 12.8359 7.99901L13.3359 7.99902L13.8359 7.99903C13.8359 11.2205 11.2244 13.8318 8.00296 13.832L8.00293 13.332ZM13.3359 7.99902H12.8359C12.8359 5.61481 11.1088 3.63391 8.83715 3.23869L8.92285 2.74609L9.00855 2.25349C11.7506 2.73054 13.8359 5.12 13.8359 7.99902H13.3359Z" fill="currentColor"/>
</svg>
