<svg width="16" height="13" viewBox="0 0 16 13" fill="none" xmlns="http://www.w3.org/2000/svg">
<path fill-rule="evenodd" clip-rule="evenodd" d="M6.38515 9.74614C5.46945 11.0941 3.93503 12.8 1.89327 12.8C0.928081 12.8 0 12.4183 0 10.7601C0 6.53718 6.00154 0 11.57 0C14.7378 0 16 2.11147 16 4.50924C16 7.58696 13.9211 11.1061 11.8546 11.1061C11.1988 11.1061 10.877 10.7601 10.877 10.2114C10.877 10.0682 10.9018 9.91314 10.9513 9.74614C10.2459 10.9033 8.88476 11.9769 7.61021 11.9769C6.68213 11.9769 6.21191 11.4162 6.21191 10.6289C6.21191 10.3426 6.27378 10.0444 6.38515 9.74614Z" fill="#AB9FF2"/>
<path d="M12.9996 5.47497C13.4796 5.47497 13.9087 5.12564 13.9087 4.42693C13.9087 3.72824 13.4796 3.37891 12.9996 3.37891C12.5124 3.37891 12.0906 3.72824 12.0906 4.42693C12.0906 5.12564 12.5124 5.47497 12.9996 5.47497Z" fill="currentColor"/>
<path d="M10.2724 5.47497C10.7524 5.47497 11.1815 5.12563 11.1815 4.42695C11.1815 3.72824 10.7524 3.37891 10.2724 3.37891C9.78509 3.37891 9.36328 3.72824 9.36328 4.42695C9.36328 5.12563 9.78509 5.47497 10.2724 5.47497Z" fill="currentColor"/>
</svg>
