<svg width="16" height="16" viewBox="0 0 16 16" fill="none" xmlns="http://www.w3.org/2000/svg">
<path d="M14.235 14.671C14.235 15.3785 14.235 15.7322 14.0036 15.9076C13.7723 16.083 13.4317 15.9874 12.7505 15.7962L1.80412 12.7246C1.39372 12.6094 1.18847 12.5518 1.06982 12.3953C0.951172 12.2387 0.951172 12.0256 0.951172 11.5993V4.40057C0.951172 3.97432 0.951172 3.76118 1.06982 3.60463C1.18847 3.44808 1.39372 3.39048 1.80412 3.27533L12.7505 0.2036C13.4317 0.0124761 13.7723 -0.0830983 14.0036 0.0922755C14.235 0.267649 14.235 0.621397 14.235 1.32889V14.671ZM3.68115 11.7231L12.7448 14.2668V9.17969L3.68115 11.7231ZM2.44126 10.543L11.5031 7.99995L2.44126 5.45686V10.543ZM3.68105 4.27682L12.7448 6.82025V1.73314L3.68105 4.27682Z" fill="currentColor"/>
</svg>
