<svg width="20" height="20" viewBox="0 0 20 20" fill="none" xmlns="http://www.w3.org/2000/svg">
<path d="M15.0026 7.4987C15.0026 8.41917 14.2564 9.16536 13.3359 9.16536C12.4155 9.16536 11.6693 8.41917 11.6693 7.4987M15.0026 7.4987C15.0026 6.57822 14.2564 5.83203 13.3359 5.83203C12.4155 5.83203 11.6693 6.57822 11.6693 7.4987M15.0026 7.4987H16.6693M11.6693 7.4987H3.33594M8.33594 12.4987C8.33594 13.4192 7.58975 14.1654 6.66927 14.1654C5.7488 14.1654 5.0026 13.4192 5.0026 12.4987M8.33594 12.4987C8.33594 11.5782 7.58975 10.832 6.66927 10.832C5.7488 10.832 5.0026 11.5782 5.0026 12.4987M8.33594 12.4987H16.6693M5.0026 12.4987H3.33594" stroke="currentColor" stroke-linecap="round"/>
</svg>
