<svg width="28" height="28" viewBox="0 0 28 28" fill="none" xmlns="http://www.w3.org/2000/svg">
<g clip-path="url(#clip0_195_9944)">
<path d="M5.96191 17.6572C5.96191 19.2607 4.65423 20.5703 3.05057 20.5703C1.44713 20.5703 0.137695 19.2607 0.137695 17.6572C0.137695 16.0538 1.44735 14.7441 3.05079 14.7441H5.96213L5.96191 17.6572ZM7.42951 17.6572C7.42951 16.0538 8.73916 14.7441 10.3426 14.7441C11.946 14.7441 13.2557 16.0536 13.2557 17.6572V24.9493C13.2557 26.5527 11.9463 27.8624 10.3426 27.8624C8.73916 27.8624 7.42951 26.5527 7.42951 24.9493V17.6572Z" fill="#DE1C59"/>
<path d="M10.3426 5.96191C8.73916 5.96191 7.42951 4.65423 7.42951 3.05057C7.42951 1.44713 8.73916 0.137695 10.3426 0.137695C11.946 0.137695 13.2557 1.44735 13.2557 3.05079V5.96213L10.3426 5.96191ZM10.3426 7.42951C11.946 7.42951 13.2557 8.73916 13.2557 10.3426C13.2557 11.946 11.9463 13.2557 10.3426 13.2557H3.05057C1.44713 13.2557 0.137695 11.9463 0.137695 10.3426C0.137695 8.73916 1.44735 7.42951 3.05079 7.42951H10.3426Z" fill="#35C5F0"/>
<path d="M22.0379 10.3426C22.0379 8.73916 23.3456 7.42951 24.9493 7.42951C26.5527 7.42951 27.8624 8.73916 27.8624 10.3426C27.8624 11.946 26.5527 13.2557 24.9493 13.2557H22.0379V10.3426ZM20.5703 10.3426C20.5703 11.946 19.2607 13.2557 17.6572 13.2557C16.0538 13.2557 14.7441 11.9463 14.7441 10.3426V3.05057C14.7441 1.44713 16.0536 0.137695 17.6572 0.137695C19.2607 0.137695 20.5703 1.44735 20.5703 3.05079V10.3426Z" fill="#2EB57D"/>
<path d="M17.6572 22.0379C19.2607 22.0379 20.5703 23.3456 20.5703 24.9493C20.5703 26.5527 19.2607 27.8624 17.6572 27.8624C16.0538 27.8624 14.7441 26.5527 14.7441 24.9493V22.0379H17.6572ZM17.6572 20.5703C16.0538 20.5703 14.7441 19.2607 14.7441 17.6572C14.7441 16.0538 16.0536 14.7441 17.6572 14.7441H24.9493C26.5527 14.7441 27.8624 16.0536 27.8624 17.6572C27.8624 19.2607 26.5527 20.5703 24.9493 20.5703H17.6572Z" fill="#ECB32D"/>
</g>
<defs>
<clipPath id="clip0_195_9944">
<rect width="28" height="28" fill="white"/>
</clipPath>
</defs>
</svg>
