<svg width="16" height="10" viewBox="0 0 16 10" fill="none" xmlns="http://www.w3.org/2000/svg">
<path d="M3.27553 1.87567C5.88479 -0.625224 10.1152 -0.625224 12.7245 1.87567L13.0385 2.17666C13.169 2.3017 13.169 2.50444 13.0385 2.62949L11.9643 3.6591C11.8991 3.72163 11.7933 3.72163 11.7281 3.6591L11.2959 3.24491C9.47564 1.50022 6.52438 1.50022 4.7041 3.24491L4.24131 3.68848C4.17608 3.751 4.07032 3.751 4.00509 3.68848L2.93086 2.65886C2.80039 2.53382 2.80039 2.33108 2.93086 2.20603L3.27553 1.87567ZM14.9461 4.00503L15.9022 4.92139C16.0326 5.04644 16.0326 5.24917 15.9022 5.37422L11.5912 9.50621C11.4607 9.63126 11.2492 9.63126 11.1187 9.50622C11.1187 9.50622 11.1187 9.50622 11.1187 9.50622L8.05908 6.57362C8.02647 6.54236 7.97359 6.54236 7.94097 6.57362C7.94097 6.57362 7.94097 6.57362 7.94097 6.57362L4.88138 9.50621C4.75092 9.63126 4.5394 9.63126 4.40893 9.50622C4.40893 9.50622 4.40893 9.50622 4.40893 9.50622L0.0978471 5.37416C-0.0326157 5.24912 -0.0326157 5.04638 0.0978471 4.92134L1.05391 4.00498C1.18438 3.87993 1.3959 3.87993 1.52636 4.00498L4.58606 6.93762C4.61868 6.96888 4.67156 6.96888 4.70418 6.93762C4.70418 6.93762 4.70418 6.93761 4.70418 6.93762L7.76373 4.00498C7.89419 3.87993 8.10571 3.87992 8.23617 4.00496C8.23617 4.00496 8.23618 4.00497 8.23617 4.00496L11.2959 6.93761C11.3285 6.96887 11.3814 6.96887 11.414 6.93761L14.4736 4.00503C14.6041 3.87998 14.8156 3.87998 14.9461 4.00503Z" fill="#3B99FC"/>
</svg>
